<?xml version="1.0" encoding="UTF-8" standalone="no"?>
<!DOCTYPE svg PUBLIC "-//W3C//DTD SVG 1.0//EN" "http://www.w3.org/TR/2001/PR-SVG-20010719/DTD/svg10.dtd">
<svg width="1110px" height="780px" xmlns="http://www.w3.org/2000/svg" xmlns:xlink="http://www.w3.org/1999/xlink">
<g id="viewport" transform="scale(0.40) translate(-200, -280)">
  <line style="fill: none; fill-opacity:0; stroke-width: 2; stroke-dasharray: 4; stroke: #bfbfbf" x1="1000" y1="308.326" x2="999" y2="2194.33"/>
  <line style="fill: none; fill-opacity:0; stroke-width: 2; stroke-dasharray: 4; stroke: #bfbfbf" x1="1399" y1="304.326" x2="1398" y2="2187.33"/>
  <line style="fill: none; fill-opacity:0; stroke-width: 2; stroke-dasharray: 4; stroke: #bfbfbf" x1="1599.36" y1="306.326" x2="1598.36" y2="2181.33"/>
  <line style="fill: none; fill-opacity:0; stroke-width: 2; stroke-dasharray: 4; stroke: #bfbfbf" x1="1800.36" y1="306.326" x2="1798.36" y2="2185.33"/>
  <line style="fill: none; fill-opacity:0; stroke-width: 2; stroke-dasharray: 4; stroke: #bfbfbf" x1="2199.36" y1="305.326" x2="2200.36" y2="2187.33"/>
  <line style="fill: none; fill-opacity:0; stroke-width: 2; stroke-dasharray: 4; stroke: #bfbfbf" x1="2519.28" y1="308.326" x2="2521.28" y2="2183.33"/>
  <line style="fill: none; fill-opacity:0; stroke-width: 2; stroke-dasharray: 4; stroke: #bfbfbf" x1="401" y1="301.326" x2="400" y2="2198.33"/>
  <line style="fill: none; fill-opacity:0; stroke-width: 2; stroke-dasharray: 4; stroke: #bfbfbf" x1="600" y1="303.326" x2="599" y2="2196.33"/>
  <line style="fill: none; fill-opacity:0; stroke-width: 2; stroke-dasharray: 4; stroke: #bfbfbf" x1="781" y1="308.326" x2="800" y2="2194.33"/>
  <g>
    <rect style="fill: #dae6da" x="221.5" y="344" width="2731.27" height="120" rx="14" ry="14"/>
    <rect style="fill: none; fill-opacity:0; stroke-width: 2; stroke-linejoin: round; stroke: #4d4d4d" x="221.5" y="344" width="2731.27" height="120" rx="14" ry="14"/>
  </g>
  <line style="fill: none; fill-opacity:0; stroke-width: 2; stroke-linejoin: round; stroke-dasharray: 4; stroke: #4d4d4d" x1="401" y1="461.45" x2="401" y2="345.95"/>
  <g>
    <rect style="fill: #dae6da" x="221.5" y="494.326" width="2731.27" height="129.674" rx="14" ry="14"/>
    <rect style="fill: none; fill-opacity:0; stroke-width: 2; stroke-linejoin: round; stroke: #4d4d4d" x="221.5" y="494.326" width="2731.27" height="129.674" rx="14" ry="14"/>
  </g>
  <line style="fill: none; fill-opacity:0; stroke-width: 2; stroke-linejoin: round; stroke-dasharray: 4; stroke: #4d4d4d" x1="401" y1="623" x2="401" y2="490.575"/>
  <line style="fill: none; fill-opacity:0; stroke-width: 2; stroke-linejoin: round; stroke-dasharray: 4; stroke: #4d4d4d" x1="1800" y1="1094" x2="1800" y2="974"/>
  <g>
    <rect style="fill: #dae6da" x="220" y="970" width="2732.77" height="202" rx="14" ry="14"/>
    <rect style="fill: none; fill-opacity:0; stroke-width: 2; stroke-linejoin: round; stroke: #4d4d4d" x="220" y="970" width="2732.77" height="202" rx="14" ry="14"/>
  </g>
  <line style="fill: none; fill-opacity:0; stroke-width: 2; stroke-linejoin: round; stroke-dasharray: 4; stroke: #4d4d4d" x1="400.5" y1="1249.83" x2="400" y2="974"/>
  <g>
    <rect style="fill: #dae6da" x="220" y="1209" width="2733.01" height="276" rx="14" ry="14"/>
    <rect style="fill: none; fill-opacity:0; stroke-width: 2; stroke-linejoin: round; stroke: #4d4d4d" x="220" y="1209" width="2733.01" height="276" rx="14" ry="14"/>
  </g>
  <line style="fill: none; fill-opacity:0; stroke-width: 2; stroke-linejoin: round; stroke-dasharray: 4; stroke: #4d4d4d" x1="400" y1="1480" x2="400" y2="1180"/>
  <g>
    <rect style="fill: #dae6da" x="220" y="1520" width="2733.01" height="360" rx="14" ry="14"/>
    <rect style="fill: none; fill-opacity:0; stroke-width: 2; stroke-linejoin: round; stroke: #4d4d4d" x="220" y="1520" width="2733.01" height="360" rx="14" ry="14"/>
  </g>
  <line style="fill: none; fill-opacity:0; stroke-width: 2; stroke-linejoin: round; stroke-dasharray: 4; stroke: #4d4d4d" x1="400" y1="1880" x2="400" y2="1520"/>
  <g>
    <rect style="fill: #dae6da" x="220" y="1920" width="2733.01" height="240" rx="14" ry="14"/>
    <rect style="fill: none; fill-opacity:0; stroke-width: 2; stroke-linejoin: round; stroke: #4d4d4d" x="220" y="1920" width="2733.01" height="240" rx="14" ry="14"/>
  </g>
  <text font-size="15.2" style="fill: #000000;text-anchor:middle;font-family:sans-serif;font-style:normal;font-weight:700" x="500" y="318.7">
    <tspan x="500" y="318.7">Home Development</tspan>
  </text>
  <text font-size="15.2" style="fill: #000000;text-anchor:middle;font-family:sans-serif;font-style:normal;font-weight:700" x="1500" y="318.7">
    <tspan x="1500" y="318.7">Pre-integration QA</tspan>
  </text>
  <text font-size="15.2" style="fill: #000000;text-anchor:middle;font-family:sans-serif;font-style:normal;font-weight:700" x="700" y="319.7">
    <tspan x="700" y="319.7">Devel Project</tspan>
  </text>
  <text font-size="15.2" style="fill: #000000;text-anchor:middle;font-family:sans-serif;font-style:normal;font-weight:700" x="2000" y="318.7">
    <tspan x="2000" y="318.7">Factory Integration</tspan>
  </text>
  <text font-size="15.2" style="fill: #000000;text-anchor:middle;font-family:sans-serif;font-style:normal;font-weight:700" x="2727.77" y="320.026">
    <tspan x="2727.77" y="320.026">Release</tspan>
  </text>
  <text font-size="15.2" style="fill: #000000;text-anchor:middle;font-family:sans-serif;font-style:normal;font-weight:700" x="1700" y="318.7">
    <tspan x="1700" y="318.7">Review</tspan>
  </text>
  <text font-size="15.2" style="fill: #000000;text-anchor:start;font-family:sans-serif;font-style:normal;font-weight:700" x="240" y="409.7">
    <tspan x="230" y="409.7">Coordinator</tspan>
  </text>
  <text font-size="15.2" style="fill: #000000;text-anchor:start;font-family:sans-serif;font-style:normal;font-weight:700" x="240" y="1075.7">
    <tspan x="230" y="1075.7">Technical Reviewer</tspan>
  </text>
  <text font-size="15.2" style="fill: #000000;text-anchor:start;font-family:sans-serif;font-style:normal;font-weight:700" x="240" y="1344.7">
    <tspan x="230" y="1344.7">QA Team</tspan>
  </text>
  <text font-size="15.2" style="fill: #000000;text-anchor:start;font-family:sans-serif;font-style:normal;font-weight:700" x="240" y="562.7">
    <tspan x="230" y="562.7">Factory Maint.</tspan>
  </text>
  <text font-size="15.2" style="fill: #000000;text-anchor:start;font-family:sans-serif;font-style:normal;font-weight:700" x="240" y="2044.7">
    <tspan x="230" y="2044.7">Package Maint.</tspan>
  </text>
  <text font-size="15.2" style="fill: #000000;text-anchor:start;font-family:sans-serif;font-style:normal;font-weight:700" x="240" y="1704.7">
    <tspan x="230" y="1704.7">Project Maint.</tspan>
  </text>
  <text font-size="15.2" style="fill: #000000;text-anchor:middle;font-family:sans-serif;font-style:normal;font-weight:700" x="900" y="318.7">
    <tspan x="900" y="318.7">Automatic Review</tspan>
  </text>
  <text font-size="15.2" style="fill: #000000;text-anchor:middle;font-family:sans-serif;font-style:normal;font-weight:700" x="2352" y="319.7">
    <tspan x="2352" y="319.7">Integration QA</tspan>
  </text>
  <text font-size="15.2" style="fill: #000000;text-anchor:middle;font-family:sans-serif;font-style:normal;font-weight:700" x="1200" y="317.7">
    <tspan x="1200" y="317.7">Staging Project</tspan>
  </text>
  <g id="packagedevel">
    <rect style="fill: #d8e6f9" x="420" y="1940" width="160" height="80"/>
    <rect style="fill: none; fill-opacity:0; stroke-width: 2; stroke: #000000" x="420" y="1940" width="160" height="80"/>
  </g>
  <text font-size="20.00" style="fill: #000000;text-anchor:middle;font-family:sans-serif;font-style:normal;font-weight:normal" x="500" y="1975.93">
    <tspan x="500" y="1975.93">Package</tspan>
    <tspan x="500" y="1994.27">Development</tspan>
  </text>
  <g>
    <rect style="fill: #d8e6f9" x="620" y="1660" width="160" height="80"/>
    <rect style="fill: none; fill-opacity:0; stroke-width: 2; stroke: #000000" x="620" y="1660" width="160" height="80"/>
  </g>
  <text font-size="20.00" style="fill: #000000;text-anchor:middle;font-family:sans-serif;font-style:normal;font-weight:normal" x="700" y="1695.93">
    <tspan x="700" y="1695.93">Devel Project</tspan>
    <tspan x="700" y="1714.27">Integration</tspan>
  </text>
  <g>
    <polygon style="fill: #ffffff" points="1190,994 1280,1044 1190,1094 1100,1044 "/>
    <polygon style="fill: none; fill-opacity:0; stroke-width: 2; stroke: #000000" points="1190,994 1280,1044 1190,1094 1100,1044 "/>
    <text font-size="20.00" style="fill: #000000;text-anchor:middle;font-family:sans-serif;font-style:normal;font-weight:normal" x="1190" y="1039.31">
      <tspan x="1190" y="1039.31">Needs</tspan>
      <tspan x="1190" y="1057.65">Staging</tspan>
    </text>
  </g>
  <g>
    <rect style="fill: #ffffff" x="2020" y="514" width="160" height="80"/>
    <rect style="fill: none; fill-opacity:0; stroke-width: 2; stroke: #000000" x="2020" y="514" width="160" height="80"/>
  </g>
  <text font-size="20.00" style="fill: #000000;text-anchor:middle;font-family:sans-serif;font-style:normal;font-weight:normal" x="2100" y="549.928">
    <tspan x="2100" y="549.928">Factory</tspan>
    <tspan x="2100" y="568.272">Integration</tspan>
  </text>
  <g>
    <polygon style="fill: #ffffff" points="2366,1232 2486,1292 2366,1352 2246,1292 "/>
    <polygon style="fill: none; fill-opacity:0; stroke-width: 2; stroke: #000000" points="2366,1232 2486,1292 2366,1352 2246,1292 "/>
    <text font-size="20.00" style="fill: #000000;text-anchor:middle;font-family:sans-serif;font-style:normal;font-weight:normal" x="2366" y="1287.31">
      <tspan x="2366" y="1287.31">Integration</tspan>
      <tspan x="2366" y="1305.65">Test</tspan>
    </text>
  </g>
  <g>
    <polyline style="fill: none; fill-opacity:0; stroke-width: 2; stroke: #000000" points="1600,1340 1600,1339.33 1742.23,1339.33 1742.23,1120.06 "/>
    <polygon style="fill: #000000" points="1742.23,1112.56 1747.23,1122.56 1742.23,1120.06 1737.23,1122.56 "/>
    <polygon style="fill: none; fill-opacity:0; stroke-width: 2; stroke: #000000" points="1742.23,1112.56 1747.23,1122.56 1742.23,1120.06 1737.23,1122.56 "/>
  </g>
  <g>
    <polyline style="fill: none; fill-opacity:0; stroke-width: 2; stroke: #000000" points="2366,1352 2366,1360 2366,1360 2366,1379.52 "/>
    <polygon style="fill: #000000" points="2366,1387.02 2361,1377.02 2366,1379.52 2371,1377.02 "/>
    <polygon style="fill: none; fill-opacity:0; stroke-width: 2; stroke: #000000" points="2366,1387.02 2361,1377.02 2366,1379.52 2371,1377.02 "/>
  </g>
  <g>
    <polygon style="fill: #ffffff" points="1500,994 1580,1044 1500,1094 1420,1044 "/>
    <polygon style="fill: none; fill-opacity:0; stroke-width: 2; stroke: #000000" points="1500,994 1580,1044 1500,1094 1420,1044 "/>
    <text font-size="20.00" style="fill: #000000;text-anchor:middle;font-family:sans-serif;font-style:normal;font-weight:normal" x="1500" y="1048.48">
      <tspan x="1500" y="1048.48">Needs QA</tspan>
    </text>
  </g>
  <g>
    <line style="fill: none; fill-opacity:0; stroke-width: 2; stroke: #000000" x1="1500" y1="1094" x2="1500" y2="1250.26"/>
    <polygon style="fill: #000000" points="1500,1257.76 1495,1247.76 1500,1250.26 1505,1247.76 "/>
    <polygon style="fill: none; fill-opacity:0; stroke-width: 2; stroke: #000000" points="1500,1257.76 1495,1247.76 1500,1250.26 1505,1247.76 "/>
  </g>
  <g>
    <rect style="fill: #ffdee1" x="2547" y="518" width="160" height="80"/>
    <rect style="fill: none; fill-opacity:0; stroke-width: 2; stroke: #000000" x="2547" y="518" width="160" height="80"/>
  </g>
  <text font-size="20.00" style="fill: #000000;text-anchor:middle;font-family:sans-serif;font-style:normal;font-weight:normal" x="2627" y="563.1">
    <tspan x="2627" y="563.1">Factory-Tested</tspan>
  </text>
  <text font-size="16.00" style="fill: #000000;text-anchor:start;font-family:sans-serif;font-style:normal;font-weight:normal" x="280" y="714">
    <tspan x="280" y="714"></tspan>
  </text>
  <g>
    <line style="fill: none; fill-opacity:0; stroke-width: 2; stroke: #000000" x1="2627" y1="518" x2="2627.01" y2="452.736"/>
    <polygon style="fill: #000000" points="2627.01,445.236 2632.01,455.237 2627.01,452.736 2622.01,455.235 "/>
    <polygon style="fill: none; fill-opacity:0; stroke-width: 2; stroke: #000000" points="2627.01,445.236 2632.01,455.237 2627.01,452.736 2622.01,455.235 "/>
  </g>
  <g>
    <rect style="fill: #ffffff" x="1020" y="1540" width="160" height="480"/>
    <rect style="fill: none; fill-opacity:0; stroke-width: 2; stroke: #000000" x="1020" y="1540" width="160" height="480"/>
  </g>
  <text font-size="20.00" style="fill: #000000;text-anchor:middle;font-family:sans-serif;font-style:normal;font-weight:normal" x="1100" y="1775.93">
    <tspan x="1100" y="1775.93">Staging Project</tspan>
    <tspan x="1100" y="1794.27">Integration</tspan>
  </text>
  <g>
    <line style="fill: none; fill-opacity:0; stroke-width: 4; stroke: #000000" x1="700" y1="1660" x2="700.328" y2="1632.21"/>
    <polygon style="fill: #000000" points="700.417,1624.71 705.299,1634.77 700.328,1632.21 695.299,1634.65 "/>
    <polygon style="fill: none; fill-opacity:0; stroke-width: 4; stroke: #000000" points="700.417,1624.71 705.299,1634.77 700.328,1632.21 695.299,1634.65 "/>
  </g>
  <g>
    <polyline style="fill: none; fill-opacity:0; stroke-width: 4; stroke: #000000" points="700.47,1540.24 700.47,1420 900,1420 900,1119.97 "/>
    <polygon style="fill: #000000" points="900,1112.47 905,1122.47 900,1119.97 895,1122.47 "/>
    <polygon style="fill: none; fill-opacity:0; stroke-width: 4; stroke: #000000" points="900,1112.47 905,1122.47 900,1119.97 895,1122.47 "/>
  </g>
  <g>
    <rect style="fill: #ffffff" x="2286" y="1390" width="160" height="80"/>
    <rect style="fill: none; fill-opacity:0; stroke-width: 2; stroke: #000000" x="2286" y="1390" width="160" height="80"/>
  </g>
  <text font-size="20.00" style="fill: #000000;text-anchor:middle;font-family:sans-serif;font-style:normal;font-weight:normal" x="2366" y="1435.1">
    <tspan x="2366" y="1435.1">Bug Report</tspan>
  </text>
  <g>
    <line style="fill: none; fill-opacity:0; stroke-width: 4; stroke: #000000" x1="1980" y1="554.001" x2="2008.03" y2="554"/>
    <polygon style="fill: #000000" points="2015.53,554 2005.53,559 2008.03,554 2005.53,549 "/>
    <polygon style="fill: none; fill-opacity:0; stroke-width: 4; stroke: #000000" points="2015.53,554 2005.53,559 2008.03,554 2005.53,549 "/>
  </g>
  <g>
    <polygon style="fill: #ffffff" points="700.471,1780 780.942,1819.39 700.471,1858.78 620,1819.39 "/>
    <polygon style="fill: none; fill-opacity:0; stroke-width: 2; stroke: #000000" points="700.471,1780 780.942,1819.39 700.471,1858.78 620,1819.39 "/>
    <text font-size="20.00" style="fill: #000000;text-anchor:middle;font-family:sans-serif;font-style:normal;font-weight:normal" x="700.471" y="1823.87">
      <tspan x="700.471" y="1823.87">Accept SR</tspan>
    </text>
  </g>
  <g>
    <polyline style="fill: none; fill-opacity:0; stroke-width: 4; stroke: #000000" points="580,2100 580,2100 700.47,2100 700.47,1870.75 "/>
    <polygon style="fill: #000000" points="700.47,1863.25 705.47,1873.25 700.47,1870.75 695.47,1873.25 "/>
    <polygon style="fill: none; fill-opacity:0; stroke-width: 4; stroke: #000000" points="700.47,1863.25 705.47,1873.25 700.47,1870.75 695.47,1873.25 "/>
  </g>
  <g id="createsr">
    <rect style="fill: #ffffff" x="420" y="2060" width="160" height="80"/>
    <rect style="fill: none; fill-opacity:0; stroke-width: 2; stroke: #000000" x="420" y="2060" width="160" height="80"/>
  </g>
  <text font-size="20.00" style="fill: #000000;text-anchor:middle;font-family:sans-serif;font-style:normal;font-weight:normal" x="500" y="2105.1">
    <tspan x="500" y="2105.1">Create SR</tspan>
  </text>
  <g>
    <line style="fill: none; fill-opacity:0; stroke-width: 4; stroke: #000000" x1="500" y1="2020" x2="500" y2="2048.03"/>
    <polygon style="fill: #000000" points="500,2055.53 495,2045.53 500,2048.03 505,2045.53 "/>
    <polygon style="fill: none; fill-opacity:0; stroke-width: 4; stroke: #000000" points="500,2055.53 495,2045.53 500,2048.03 505,2045.53 "/>
  </g>
  <g>
    <rect style="fill: #ffffff" x="620.47" y="1540.24" width="160" height="80"/>
    <rect style="fill: none; fill-opacity:0; stroke-width: 2; stroke: #000000" x="620.47" y="1540.24" width="160" height="80"/>
  </g>
  <text font-size="20.00" style="fill: #000000;text-anchor:middle;font-family:sans-serif;font-style:normal;font-weight:normal" x="700.47" y="1576.17">
    <tspan x="700.47" y="1576.17">Create SR</tspan>
    <tspan x="700.47" y="1594.51">to Factory</tspan>
  </text>
  <g>
    <line style="fill: none; fill-opacity:0; stroke-width: 4; stroke: #000000" x1="700.47" y1="1780" x2="700.141" y2="1751.97"/>
    <polygon style="fill: #000000" points="700.053,1744.47 705.17,1754.41 700.141,1751.97 695.17,1754.53 "/>
    <polygon style="fill: none; fill-opacity:0; stroke-width: 4; stroke: #000000" points="700.053,1744.47 705.17,1754.41 700.141,1751.97 695.17,1754.53 "/>
  </g>
  <g>
    <polyline style="fill: none; fill-opacity:0; stroke-width: 2; stroke: #000000" points="620,1819.39 620,1820.01 500,1820.01 500,1930.26 "/>
    <polygon style="fill: #000000" points="500,1937.76 495,1927.76 500,1930.26 505,1927.76 "/>
    <polygon style="fill: none; fill-opacity:0; stroke-width: 2; stroke: #000000" points="500,1937.76 495,1927.76 500,1930.26 505,1927.76 "/>
  </g>
  <g>
    <rect style="fill: #ffffff" x="1220" y="1560" width="160" height="80"/>
    <rect style="fill: none; fill-opacity:0; stroke-width: 2; stroke: #000000" x="1220" y="1560" width="160" height="80"/>
  </g>
  <text font-size="20.00" style="fill: #000000;text-anchor:middle;font-family:sans-serif;font-style:normal;font-weight:normal" x="1300" y="1595.93">
    <tspan x="1300" y="1595.93">Create SR</tspan>
    <tspan x="1300" y="1614.27">Group</tspan>
  </text>
  <g>
    <line style="fill: none; fill-opacity:0; stroke-width: 2; stroke: #000000" x1="1300" y1="1640" x2="1300.11" y2="1690"/>
    <polygon style="fill: #000000" points="1300.13,1697.5 1295.11,1687.51 1300.11,1690 1305.11,1687.49 "/>
    <polygon style="fill: none; fill-opacity:0; stroke-width: 2; stroke: #000000" points="1300.13,1697.5 1295.11,1687.51 1300.11,1690 1305.11,1687.49 "/>
  </g>
  <g>
    <polyline style="fill: none; fill-opacity:0; stroke-width: 2; stroke: #000000" points="2366,1470 2366.28,1470 2366.28,2120 780,2120 780,1980 589.736,1980 "/>
    <polygon style="fill: #000000" points="582.236,1980 592.236,1975 589.736,1980 592.236,1985 "/>
    <polygon style="fill: none; fill-opacity:0; stroke-width: 2; stroke: #000000" points="582.236,1980 592.236,1975 589.736,1980 592.236,1985 "/>
  </g>
  <g>
    <polygon style="fill: #ffffff" points="1900,507.24 1980,554.001 1900,600.761 1820,554.001 "/>
    <polygon style="fill: none; fill-opacity:0; stroke-width: 2; stroke: #000000" points="1900,507.24 1980,554.001 1900,600.761 1820,554.001 "/>
    <text font-size="20.00" style="fill: #000000;text-anchor:middle;font-family:sans-serif;font-style:normal;font-weight:normal" x="1900" y="558.479">
      <tspan x="1900" y="558.479">Accept SR</tspan>
    </text>
  </g>
  <g>
    <polyline style="fill: none; fill-opacity:0; stroke-width: 2; stroke: #000000" points="1400,1340 1400,1340 500,1340 500,1930.26 "/>
    <polygon style="fill: #000000" points="500,1937.76 495,1927.76 500,1930.26 505,1927.76 "/>
    <polygon style="fill: none; fill-opacity:0; stroke-width: 2; stroke: #000000" points="500,1937.76 495,1927.76 500,1930.26 505,1927.76 "/>
  </g>
  <g>
    <polyline style="fill: none; fill-opacity:0; stroke-width: 2; stroke: #000000" points="1651.23,1109.33 1651.23,1109.33 1651.23,1155 500,1155 500,1930.26 "/>
    <polygon style="fill: #000000" points="500,1937.76 495,1927.76 500,1930.26 505,1927.76 "/>
    <polygon style="fill: none; fill-opacity:0; stroke-width: 2; stroke: #000000" points="500,1937.76 495,1927.76 500,1930.26 505,1927.76 "/>
  </g>
  <text font-size="16.00" style="fill: #000000;text-anchor:start;font-family:sans-serif;font-style:normal;font-weight:normal" x="663.804" y="1773.58">
    <tspan x="663.804" y="1773.58">Yes</tspan>
  </text>
  <text font-size="16.00" style="fill: #000000;text-anchor:start;font-family:sans-serif;font-style:normal;font-weight:normal" x="582.136" y="1810.24">
    <tspan x="582.136" y="1810.24">No</tspan>
  </text>
  <line style="fill: none; fill-opacity:0; stroke-width: 2; stroke-dasharray: 4; stroke: #4d4d4d" x1="400" y1="2160" x2="400" y2="1920"/>
  <text font-size="16.00" style="fill: #000000;text-anchor:start;font-family:sans-serif;font-style:normal;font-weight:normal" x="1510" y="1109.33">
    <tspan x="1510" y="1109.33">Yes</tspan>
  </text>
  <text font-size="16.00" style="fill: #000000;text-anchor:start;font-family:sans-serif;font-style:normal;font-weight:normal" x="1289.33" y="1063.33">
    <tspan x="1289.33" y="1063.33">No</tspan>
  </text>
  <text font-size="16.00" style="fill: #000000;text-anchor:start;font-family:sans-serif;font-style:normal;font-weight:normal" x="1593" y="1137">
    <tspan x="1593" y="1137">Not Ok</tspan>
  </text>
  <text font-size="16.00" style="fill: #000000;text-anchor:start;font-family:sans-serif;font-style:normal;font-weight:normal" x="1198" y="1113.33">
    <tspan x="1198" y="1113.33">Yes</tspan>
  </text>
  <text font-size="16.00" style="fill: #000000;text-anchor:start;font-family:sans-serif;font-style:normal;font-weight:normal" x="1468.33" y="992.334">
    <tspan x="1468.33" y="992.334">No</tspan>
  </text>
  <text font-size="16.00" style="fill: #000000;text-anchor:start;font-family:sans-serif;font-style:normal;font-weight:normal" x="1600" y="1320">
    <tspan x="1600" y="1320">Ok</tspan>
  </text>
  <text font-size="16.00" style="fill: #000000;text-anchor:start;font-family:sans-serif;font-style:normal;font-weight:normal" x="1340" y="1331.67">
    <tspan x="1340" y="1331.67">Not Ok</tspan>
  </text>
  <text font-size="16.00" style="fill: #000000;text-anchor:start;font-family:sans-serif;font-style:normal;font-weight:normal" x="2483.66" y="1276.33">
    <tspan x="2483.66" y="1276.33">Ok</tspan>
  </text>
  <text font-size="16.00" style="fill: #000000;text-anchor:start;font-family:sans-serif;font-style:normal;font-weight:normal" x="2375.66" y="1370.33">
    <tspan x="2375.66" y="1370.33">Not Ok</tspan>
  </text>
  <text font-size="16.00" style="fill: #000000;text-anchor:start;font-family:sans-serif;font-style:normal;font-weight:normal" x="1978" y="541.666">
    <tspan x="1978" y="541.666">Yes</tspan>
  </text>
  <text font-size="16.00" style="fill: #000000;text-anchor:start;font-family:sans-serif;font-style:normal;font-weight:normal" x="1791.67" y="544">
    <tspan x="1791.67" y="544">No</tspan>
  </text>
  <g>
    <rect style="fill: #dae6da" x="221" y="654" width="2730.77" height="120" rx="14" ry="14"/>
    <rect style="fill: none; fill-opacity:0; stroke-width: 2; stroke-linejoin: round; stroke: #4d4d4d" x="221" y="654" width="2730.77" height="120" rx="14" ry="14"/>
  </g>
  <line style="fill: none; fill-opacity:0; stroke-width: 2; stroke-linejoin: round; stroke-dasharray: 4; stroke: #4d4d4d" x1="400.5" y1="774" x2="400.5" y2="654"/>
  <text font-size="15.2" style="fill: #000000;text-anchor:start;font-family:sans-serif;font-style:normal;font-weight:700" x="240" y="718.7">
    <tspan x="230" y="718.7">Legal Reviewer</tspan>
  </text>
  <g>
    <rect style="fill: #dae6da" x="220" y="814" width="2732.77" height="120" rx="14" ry="14"/>
    <rect style="fill: none; fill-opacity:0; stroke-width: 2; stroke-linejoin: round; stroke: #4d4d4d" x="220" y="814" width="2732.77" height="120" rx="14" ry="14"/>
  </g>
  <line style="fill: none; fill-opacity:0; stroke-width: 2; stroke-linejoin: round; stroke-dasharray: 4; stroke: #4d4d4d" x1="400" y1="934" x2="400" y2="814"/>
  <text font-size="15.2" style="fill: #000000;text-anchor:start;font-family:sans-serif;font-style:normal;font-weight:700" x="240" y="878.7">
    <tspan x="230" y="878.7">Security Reviewer</tspan>
  </text>
  <g>
    <polyline style="fill: none; fill-opacity:0; stroke-width: 4; stroke: #000000" points="2486,1292 2486,1292 2627,1292 2627,609.972 "/>
    <polygon style="fill: #000000" points="2627,602.472 2632,612.472 2627,609.972 2622,612.472 "/>
    <polygon style="fill: none; fill-opacity:0; stroke-width: 4; stroke: #000000" points="2627,602.472 2632,612.472 2627,609.972 2622,612.472 "/>
  </g>
  <g>
    <polyline style="fill: none; fill-opacity:0; stroke-width: 2; stroke: #000000" points="1820,554.001 1820,554.326 500,554.326 500,1933.26 "/>
    <polygon style="fill: #000000" points="500,1940.76 495,1930.76 500,1933.26 505,1930.76 "/>
    <polygon style="fill: none; fill-opacity:0; stroke-width: 2; stroke: #000000" points="500,1940.76 495,1930.76 500,1933.26 505,1930.76 "/>
  </g>
  <rect style="fill: none; fill-opacity:0; stroke-width: 2; stroke-dasharray: 20 4 4 4 4 4; stroke: #000000" x="780" y="636" width="240" height="472"/>
  <g>
    <polygon style="fill: #ffffff" points="899.999,673.174 981.653,714.001 899.999,754.827 818.346,714.001 "/>
    <polygon style="fill: none; fill-opacity:0; stroke-width: 2; stroke: #000000" points="899.999,673.174 981.653,714.001 899.999,754.827 818.346,714.001 "/>
    <text font-size="20.00" style="fill: #000000;text-anchor:middle;font-family:sans-serif;font-style:normal;font-weight:normal" x="899.999" y="718.479">
      <tspan x="899.999" y="718.479">Auto Legal</tspan>
    </text>
  </g>
  <g>
    <polygon style="fill: #ffffff" points="901.653,834 983.307,874.827 901.653,915.653 820,874.827 "/>
    <polygon style="fill: none; fill-opacity:0; stroke-width: 2; stroke: #000000" points="901.653,834 983.307,874.827 901.653,915.653 820,874.827 "/>
    <text font-size="20.00" style="fill: #000000;text-anchor:middle;font-family:sans-serif;font-style:normal;font-weight:normal" x="901.653" y="879.305">
      <tspan x="901.653" y="879.305">rpmlint</tspan>
    </text>
  </g>
  <g>
    <polygon style="fill: #ffffff" points="902.971,994 985.942,1035.49 902.971,1076.97 820,1035.49 "/>
    <polygon style="fill: none; fill-opacity:0; stroke-width: 2; stroke: #000000" points="902.971,994 985.942,1035.49 902.971,1076.97 820,1035.49 "/>
    <text font-size="20.00" style="fill: #000000;text-anchor:middle;font-family:sans-serif;font-style:normal;font-weight:normal" x="902.971" y="1039.96">
      <tspan x="902.971" y="1039.96">check repo</tspan>
    </text>
  </g>
  <g>
    <polyline style="fill: none; fill-opacity:0; stroke-width: 2; stroke: #000000" points="780,872 780,871.826 500,871.826 500,1930.26 "/>
    <polygon style="fill: #000000" points="500,1937.76 495,1927.76 500,1930.26 505,1927.76 "/>
    <polygon style="fill: none; fill-opacity:0; stroke-width: 2; stroke: #000000" points="500,1937.76 495,1927.76 500,1930.26 505,1927.76 "/>
  </g>
  <g>
    <polygon style="fill: #ffffff" points="1300.13,1699.73 1382.43,1759.87 1300.13,1820 1217.84,1759.87 "/>
    <polygon style="fill: none; fill-opacity:0; stroke-width: 2; stroke: #000000" points="1300.13,1699.73 1382.43,1759.87 1300.13,1820 1217.84,1759.87 "/>
    <text font-size="20.00" style="fill: #000000;text-anchor:middle;font-family:sans-serif;font-style:normal;font-weight:normal" x="1300.13" y="1755.17">
      <tspan x="1300.13" y="1755.17">Merge in</tspan>
      <tspan x="1300.13" y="1773.52">Devel</tspan>
    </text>
  </g>
  <g>
    <polyline style="fill: none; fill-opacity:0; stroke-width: 2; stroke: #000000" points="1300.13,1820 1300.13,2040 860,2040 860,1700 789.736,1700 "/>
    <polygon style="fill: #000000" points="782.236,1700 792.236,1695 789.736,1700 792.236,1705 "/>
    <polygon style="fill: none; fill-opacity:0; stroke-width: 2; stroke: #000000" points="782.236,1700 792.236,1695 789.736,1700 792.236,1705 "/>
  </g>
  <rect style="fill: none; fill-opacity:0; stroke-width: 2; stroke-dasharray: 20 4 4 4 4 4; stroke: #000000" x="1590.76" y="637" width="229.235" height="472.326"/>
  <g>
    <polygon style="fill: #ffffff" points="1701.65,669.416 1792.48,714.828 1701.65,760.239 1610.83,714.828 "/>
    <polygon style="fill: none; fill-opacity:0; stroke-width: 2; stroke: #000000" points="1701.65,669.416 1792.48,714.828 1701.65,760.239 1610.83,714.828 "/>
    <text font-size="20.00" style="fill: #000000;text-anchor:middle;font-family:sans-serif;font-style:normal;font-weight:normal" x="1701.65" y="719.305">
      <tspan x="1701.65" y="719.305">Legal Review</tspan>
    </text>
  </g>
  <g>
    <polygon style="fill: #ffffff" points="1702.97,988.456 1797.03,1035.48 1702.97,1082.51 1608.91,1035.48 "/>
    <polygon style="fill: none; fill-opacity:0; stroke-width: 2; stroke: #000000" points="1702.97,988.456 1797.03,1035.48 1702.97,1082.51 1608.91,1035.48 "/>
    <text font-size="20.00" style="fill: #000000;text-anchor:middle;font-family:sans-serif;font-style:normal;font-weight:normal" x="1702.97" y="1039.96">
      <tspan x="1702.97" y="1039.96">Technical Rev.</tspan>
    </text>
  </g>
  <g>
    <polyline style="fill: none; fill-opacity:0; stroke-width: 4; stroke: #000000" points="1020,872 1020,873.326 1060,873.326 1060,1044 1088.03,1044 "/>
    <polygon style="fill: #000000" points="1095.53,1044 1085.53,1049 1088.03,1044 1085.53,1039 "/>
    <polygon style="fill: none; fill-opacity:0; stroke-width: 4; stroke: #000000" points="1095.53,1044 1085.53,1049 1088.03,1044 1085.53,1039 "/>
  </g>
  <text font-size="16.00" style="fill: #000000;text-anchor:start;font-family:sans-serif;font-style:normal;font-weight:normal" x="716.334" y="862.334">
    <tspan x="716.334" y="862.334">Not Ok</tspan>
  </text>
  <g>
    <rect style="fill: #ffdee1" x="2747" y="518" width="160" height="80"/>
    <rect style="fill: none; fill-opacity:0; stroke-width: 2; stroke: #000000" x="2747" y="518" width="160" height="80"/>
  </g>
  <text font-size="20.00" style="fill: #000000;text-anchor:middle;font-family:sans-serif;font-style:normal;font-weight:normal" x="2827" y="553.928">
    <tspan x="2827" y="553.928">Factory</tspan>
    <tspan x="2827" y="572.272">ISO</tspan>
  </text>
  <g>
    <polygon style="fill: #ffffff" points="2627.02,362.973 2710.37,402.986 2627.02,443 2543.66,402.986 "/>
    <polygon style="fill: none; fill-opacity:0; stroke-width: 2; stroke: #000000" points="2627.02,362.973 2710.37,402.986 2627.02,443 2543.66,402.986 "/>
    <text font-size="20.00" style="fill: #000000;text-anchor:middle;font-family:sans-serif;font-style:normal;font-weight:normal" x="2627.02" y="407.464">
      <tspan x="2627.02" y="407.464">Create ISO</tspan>
    </text>
  </g>
  <g>
    <polyline style="fill: none; fill-opacity:0; stroke-width: 2; stroke: #000000" points="2710.37,402.986 2710.37,404.326 2827,404.326 2827,508.264 "/>
    <polygon style="fill: #000000" points="2827,515.764 2822,505.764 2827,508.264 2832,505.764 "/>
    <polygon style="fill: none; fill-opacity:0; stroke-width: 2; stroke: #000000" points="2827,515.764 2822,505.764 2827,508.264 2832,505.764 "/>
  </g>
  <g>
    <line style="fill: none; fill-opacity:0; stroke-width: 2; stroke: #000000" x1="1180" y1="1600" x2="1210.26" y2="1600"/>
    <polygon style="fill: #000000" points="1217.76,1600 1207.76,1605 1210.26,1600 1207.76,1595 "/>
    <polygon style="fill: none; fill-opacity:0; stroke-width: 2; stroke: #000000" points="1217.76,1600 1207.76,1605 1210.26,1600 1207.76,1595 "/>
  </g>
  <g>
    <line style="fill: none; fill-opacity:0; stroke-width: 4; stroke: #000000" x1="1280" y1="1044" x2="1408.03" y2="1044"/>
    <polygon style="fill: #000000" points="1415.53,1044 1405.53,1049 1408.03,1044 1405.53,1039 "/>
    <polygon style="fill: none; fill-opacity:0; stroke-width: 4; stroke: #000000" points="1415.53,1044 1405.53,1049 1408.03,1044 1405.53,1039 "/>
  </g>
  <g>
    <polyline style="fill: none; fill-opacity:0; stroke-width: 2; stroke: #000000" points="1190,1094 1190,1420 1100,1420 1100,1530.26 "/>
    <polygon style="fill: #000000" points="1100,1537.76 1095,1527.76 1100,1530.26 1105,1527.76 "/>
    <polygon style="fill: none; fill-opacity:0; stroke-width: 2; stroke: #000000" points="1100,1537.76 1095,1527.76 1100,1530.26 1105,1527.76 "/>
  </g>
  <g>
    <polyline style="fill: none; fill-opacity:0; stroke-width: 2; stroke: #000000" points="1382.43,1759.87 1382.43,1760 1420,1760 1420,1053.74 "/>
    <polygon style="fill: #000000" points="1420,1046.24 1425,1056.24 1420,1053.74 1415,1056.24 "/>
    <polygon style="fill: none; fill-opacity:0; stroke-width: 2; stroke: #000000" points="1420,1046.24 1425,1056.24 1420,1053.74 1415,1056.24 "/>
  </g>
  <g>
    <polygon style="fill: #ffffff" points="1500,1260 1600,1340 1500,1420 1400,1340 "/>
    <polygon style="fill: none; fill-opacity:0; stroke-width: 2; stroke: #000000" points="1500,1260 1600,1340 1500,1420 1400,1340 "/>
    <text font-size="20.00" style="fill: #000000;text-anchor:middle;font-family:sans-serif;font-style:normal;font-weight:normal" x="1500" y="1335.31">
      <tspan x="1500" y="1335.31">pre Integration</tspan>
      <tspan x="1500" y="1353.65">Test</tspan>
    </text>
  </g>
  <text font-size="16.00" style="fill: #000000;text-anchor:start;font-family:sans-serif;font-style:normal;font-weight:normal" x="1032" y="861">
    <tspan x="1032" y="861">Ok</tspan>
  </text>
  <g>
    <polyline style="fill: none; fill-opacity:0; stroke-width: 4; stroke: #000000" points="1820,873.163 1900,873.163 1900,612.734 "/>
    <polygon style="fill: #000000" points="1900,605.234 1905,615.234 1900,612.734 1895,615.234 "/>
    <polygon style="fill: none; fill-opacity:0; stroke-width: 4; stroke: #000000" points="1900,605.234 1905,615.234 1900,612.734 1895,615.234 "/>
  </g>
  <text font-size="16.00" style="fill: #000000;text-anchor:start;font-family:sans-serif;font-style:normal;font-weight:normal" x="1832" y="861">
    <tspan x="1832" y="861">Ok</tspan>
  </text>
  <rect style="fill: none; fill-opacity:0; stroke-width: 2; stroke-dasharray: 20 4 4 4 4 4; stroke: #000000" x="2529" y="336.326" width="396.765" height="299"/>
  <rect style="fill: none; fill-opacity:0; stroke-width: 2; stroke-dasharray: 20 4 4 4 4 4; stroke: #000000" x="980" y="1500" width="460" height="560"/>
  <rect style="fill: none; fill-opacity:0; stroke-width: 2; stroke-dasharray: 20 4 4 4 4 4; stroke: #000000" x="380" y="1500" width="440" height="680"/>
  <rect style="fill: none; fill-opacity:0; stroke-width: 2; stroke-dasharray: 20 4 4 4 4 4; stroke: #000000" x="2222.28" y="1194" width="289" height="306"/>
  <text font-size="16.00" style="fill: #000000;text-anchor:start;font-family:sans-serif;font-style:normal;font-weight:normal" x="2714.34" y="393">
    <tspan x="2714.34" y="393">Yes</tspan>
  </text>
  <text font-size="16.00" style="fill: #000000;text-anchor:start;font-family:sans-serif;font-style:normal;font-weight:normal" x="1316.67" y="1840">
    <tspan x="1316.67" y="1840">Yes</tspan>
  </text>
  <text font-size="16.00" style="fill: #000000;text-anchor:start;font-family:sans-serif;font-style:normal;font-weight:normal" x="1391.67" y="1750">
    <tspan x="1391.67" y="1750">No</tspan>
  </text>
  <g>
    <polygon style="fill: #ffffff" points="1701.65,834 1783.31,874.827 1701.65,915.653 1620,874.827 "/>
    <polygon style="fill: none; fill-opacity:0; stroke-width: 2; stroke: #000000" points="1701.65,834 1783.31,874.827 1701.65,915.653 1620,874.827 "/>
    <text font-size="20.00" style="fill: #000000;text-anchor:middle;font-family:sans-serif;font-style:normal;font-weight:normal" x="1701.65" y="879.305">
      <tspan x="1701.65" y="879.305">rpmlint</tspan>
    </text>
  </g>
  <g>
    <polyline style="fill: none; fill-opacity:0; stroke-width: 4; stroke: #000000" points="1500,994 1500.76,994 1500.76,873.163 1578.79,873.163 "/>
    <polygon style="fill: #000000" points="1586.29,873.163 1576.29,878.163 1578.79,873.163 1576.29,868.163 "/>
    <polygon style="fill: none; fill-opacity:0; stroke-width: 4; stroke: #000000" points="1586.29,873.163 1576.29,878.163 1578.79,873.163 1576.29,868.163 "/>
  </g>
  <g>
    <polyline style="fill: none; fill-opacity:0; stroke-width: 4; stroke: #000000" points="2366,1220.03 2366,556.326 2180,556.326 2180,554 "/>
    <polygon style="fill: #000000" points="2366,1227.53 2361,1217.53 2366,1220.03 2371,1217.53 "/>
    <polygon style="fill: none; fill-opacity:0; stroke-width: 4; stroke: #000000" points="2366,1227.53 2361,1217.53 2366,1220.03 2371,1217.53 "/>
  </g>
  <line style="fill: none; fill-opacity:0; stroke-width: 2; stroke-dasharray: 4; stroke: #4d4d4d" x1="2938.27" y1="306.327" x2="2940.27" y2="2181.33"/>
</g>
</svg>
